<svg width="512" height="512" viewBox="0 0 512 512" fill="none" xmlns="http://www.w3.org/2000/svg">
<path d="M500.3 443.7L380.6 324C407.82 283.59 421.25 233.1 414.06 179.3C401.83 87.75 326.78 13.3 235.16 1.70001C98.96 -15.54 -15.54 98.98 1.75998 235.1C13.36 326.74 87.83 401.8 179.36 414C233.17 421.191 283.66 407.765 324.06 380.54L443.76 500.24C459.38 515.86 484.71 515.86 500.33 500.24C515.9 484.7 515.9 459.3 500.3 443.7ZM288 232H231.1V288C231.1 301.26 220.36 312 208 312C194.7 312 184 301.3 184 288V232H127.1C114.7 232 104 221.3 104 208C104 194.7 114.74 184 127.1 184H184V128C184 114.74 194.74 104 207.1 104C219.46 104 231.1 114.7 231.1 128V184H287.1C301.3 184 312 194.7 312 208C312 221.3 301.3 232 288 232Z" fill="#0D1821"/>
</svg>
